<?xml version="1.0" encoding="utf-8"?>
<!-- Generator: Adobe Illustrator 23.0.6, SVG Export Plug-In . SVG Version: 6.00 Build 0)  -->
<svg version="1.1" id="Layer_1" xmlns="http://www.w3.org/2000/svg" xmlns:xlink="http://www.w3.org/1999/xlink" x="0px" y="0px"
	 viewBox="0 0 250 250" style="enable-background:new 0 0 250 250;" xml:space="preserve">
<style type="text/css">
	.st0{fill:#FF4713;}
</style>
<g id="Group_333" transform="translate(159.349 324)">
	<path id="Path_215" class="st0" d="M-95.6-113.3c-2,5.3-6.5,9.2-12,10.5c-4.2-3.6-10.5-3.2-14.1,1s-3.2,10.5,1,14.1
		s10.5,3.2,14.1-1c0.6-0.7,1-1.4,1.4-2.2c10.8-3.2,19.2-11.6,22.7-22.2h-5.8C-90.8-113.2-93.2-113.2-95.6-113.3z"/>
	<path id="Path_216" class="st0" d="M50.8-105.4c-2.1,0-4.2,0.7-5.9,1.9c-4.8-2-8.7-5.8-10.8-10.6c-3.1,0.5-6.3,0.8-9.5,0.8h-4.4
		c3,10.4,11,18.6,21.3,21.8c2.2,5.1,8.1,7.4,13.1,5.3c5.1-2.2,7.4-8.1,5.3-13.1C58.5-103,54.8-105.4,50.8-105.4L50.8-105.4z"/>
	<path id="Path_217" class="st0" d="M34.4-276.3L14-296.7c-6.8,3-13.2,7-18.7,12l27.2,27.2C27.5-263.1,31.5-269.4,34.4-276.3z"/>
	<path id="Path_218" class="st0" d="M-4.4-268.6c0.5,0,1.1-0.2,1.5-0.6l2.9-2.9c0.2-0.2,0.3-0.4,0.4-0.6c0.5-1,0-2.2-1-2.7
		c-0.5-0.3-1.2-0.3-1.7,0c-0.2,0.1-0.4,0.2-0.6,0.4l-2.9,2.9c-0.8,0.8-0.8,2.1,0,2.9l0,0C-5.5-268.8-5-268.6-4.4-268.6z"/>
	<path id="Path_219" class="st0" d="M-13-260c0.5,0,1.1-0.2,1.4-0.6l2.9-2.9c0.8-0.8,0.9-2.1,0.1-2.9s-2.1-0.9-2.9-0.1l-0.1,0.1
		l-2.9,2.9c-0.8,0.8-0.8,2.1,0,2.9l0,0C-14.1-260.2-13.6-260-13-260z"/>
	<path id="Path_220" class="st0" d="M-21.7-251.4c0.5,0,1-0.2,1.4-0.6l2.9-2.9c0.8-0.8,0.7-2.1-0.1-2.9c-0.8-0.7-2-0.7-2.8,0
		l-2.9,2.9c-0.8,0.8-0.8,2.1,0,2.9C-22.7-251.6-22.2-251.4-21.7-251.4z"/>
	<path id="Path_221" class="st0" d="M6.1-267c0.3-0.8,0.2-1.7-0.4-2.3c-0.6-0.6-1.5-0.8-2.3-0.4c-0.2,0.1-0.4,0.2-0.6,0.4l-2.9,2.9
		c-0.8,0.8-0.8,2.1,0,2.9c0.4,0.4,0.9,0.6,1.4,0.6s1.1-0.2,1.5-0.6l2.9-2.9C5.8-266.5,6-266.7,6.1-267z"/>
	<path id="Path_222" class="st0" d="M-3-260.6c-0.8-0.8-2.1-0.8-2.9,0l-2.9,2.9c-0.8,0.8-0.8,2.1,0,2.9l0,0c0.4,0.4,0.9,0.6,1.5,0.6
		c0.5,0,1-0.2,1.4-0.6l2.9-2.9C-2.2-258.5-2.2-259.8-3-260.6L-3-260.6z"/>
	<path id="Path_223" class="st0" d="M-11.6-252c-0.8-0.8-2.1-0.8-2.9,0l0,0l-2.9,2.9c-0.8,0.8-0.8,2.1,0,2.9c0.8,0.8,2.1,0.8,2.9,0
		l2.9-2.9C-10.8-249.9-10.8-251.2-11.6-252z"/>
	<path id="Path_224" class="st0" d="M7.1-257.1c0.5,0,1.1-0.2,1.4-0.6l2.9-2.9c0.2-0.2,0.3-0.4,0.4-0.6c0.5-1,0.1-2.2-0.9-2.7
		c-0.5-0.3-1.2-0.3-1.7,0c-0.2,0.1-0.4,0.2-0.6,0.4l-2.9,2.9c-0.8,0.8-0.8,2.1,0,2.9C6-257.3,6.6-257.1,7.1-257.1z"/>
	<path id="Path_225" class="st0" d="M-1.5-248.5c0.5,0,1.1-0.2,1.5-0.6l2.9-2.9c0.8-0.7,0.9-2,0.2-2.9c-0.7-0.8-2-0.9-2.9-0.2
		C0-255,0-254.9-0.1-254.8L-3-252c-0.8,0.8-0.8,2.1,0,2.9C-2.6-248.7-2.1-248.5-1.5-248.5L-1.5-248.5z"/>
	<path id="Path_226" class="st0" d="M-10.2-239.8c0.5,0,1.1-0.2,1.4-0.6l2.9-2.9c0.8-0.7,0.9-2,0.2-2.9c-0.7-0.8-2-0.9-2.9-0.2
		c-0.1,0.1-0.1,0.1-0.2,0.2l-2.9,2.9c-0.8,0.8-0.8,2.1,0,2.9C-11.2-240.1-10.7-239.8-10.2-239.8z"/>
	<path id="Path_227" class="st0" d="M81.7-214.9H69.5v-93.7c0-2.2-1.8-4.1-4.1-4.1H47.7c-1,0-2,0.4-2.8,1.1l-14.6,13.5
		c-3.2-0.6-6.5-0.1-9.5,1.2l14,14c1.3-3,1.7-6.2,1.2-9.4l13.3-12.2h12v89.6h-211.7c-4.5,0-8.1,3.6-8.2,8.1l0,0v8.1
		c0,4.2,3.3,7.8,7.5,8.1c0.2,0,0.4,0.1,0.6,0.1h3.5l9.3,40.4c4.4,17.2,18.8,29.9,36.4,32.3l70.1,0.5c36.8,0,61.7-0.2,63.6-0.5
		c17.6-2.4,32-15.1,36.4-32.3l9.3-40.4h3.5c0.2,0,0.4,0,0.6-0.1c4.2-0.3,7.5-3.8,7.5-8.1v-8.1C89.8-211.3,86.2-215,81.7-214.9
		L81.7-214.9z M76.2-197.4c-0.2,0-6.9,0-6.9,0l-9.6,43.8c-3.1,14.2-14.9,24.7-29.3,26.3c-2.4,0.4-15.7,0-15.7,0s-53.1,0-82.6,0H-99
		c-14.4-1.6-26.2-12.2-29.3-26.3l-9.6-43.8c0,0-6.8,0-6.9,0c-3.6-0.3-3-2.4-3-6v-1c0-3.6,7-2.7,7-2.7H72.3c0,0,7-0.9,7,2.7v1
		C79.2-199.8,79.7-197.7,76.2-197.4L76.2-197.4z"/>
</g>
</svg>
