<?xml version="1.0" encoding="utf-8"?>
<!-- Generator: Adobe Illustrator 23.0.6, SVG Export Plug-In . SVG Version: 6.00 Build 0)  -->
<svg version="1.1" id="Capa_1" xmlns="http://www.w3.org/2000/svg" xmlns:xlink="http://www.w3.org/1999/xlink" x="0px" y="0px"
	 viewBox="0 0 250 250" style="enable-background:new 0 0 250 250;" xml:space="preserve">
<style type="text/css">
	.st0{fill:#313E48;}
	.st1{fill:#FFFFFF;}
</style>
<g id="Group_397" transform="translate(-643 -166)">
	<circle id="Ellipse_22" class="st0" cx="768" cy="291" r="123.6"/>
	<g id="Group_396" transform="translate(650.868 173.868)">
		<path id="Path_235" class="st1" d="M180.9,58.5c-8.2-8.2-21.6-8.2-29.8,0l-84.9,85.3c-2.8,2.8-4.9,6.2-6.1,9.9l-0.1,0.2l-7.6,33.4
			l33.5-7.5l0.2-0.1c3.7-1.2,7.1-3.4,9.9-6.1l84.9-85.2C189.1,80.1,189.1,66.8,180.9,58.5C180.9,58.5,180.9,58.5,180.9,58.5
			L180.9,58.5z M173.4,80.9L91,163.7l-15-15L132.5,92l8.6,8.6l7.5-7.5l-8.7-8.6l8-8l8.6,8.6l7.5-7.5l-8.7-8.6l3.1-3.1
			c4.1-4.1,10.8-4.1,15,0C177.6,70.1,177.6,76.8,173.4,80.9L173.4,80.9z"/>
	</g>
</g>
</svg>
