<?xml version="1.0" encoding="utf-8"?>
<!-- Generator: Adobe Illustrator 23.0.6, SVG Export Plug-In . SVG Version: 6.00 Build 0)  -->
<svg version="1.1" id="Capa_1" xmlns="http://www.w3.org/2000/svg" xmlns:xlink="http://www.w3.org/1999/xlink" x="0px" y="0px"
	 viewBox="0 0 250 250" style="enable-background:new 0 0 250 250;" xml:space="preserve">
<style type="text/css">
	.st0{fill:#313E48;}
</style>
<g id="Group_411" transform="translate(106.305)">
	<path id="Path_256" class="st0" d="M82.8,164.8c-6.2-7.2-17.1-8-24.4-1.8c-0.6,0.5-1.2,1.1-1.8,1.8c-6.1,6.1-12.2,12.1-18.2,18.3
		c-1.1,1.7-3.4,2.1-5,1c0,0,0,0-0.1,0c-3.9-2.2-8.2-3.9-12-6.3C4,166.4-11.5,152.4-24.4,136.1c-6.6-7.9-12.1-16.7-16.2-26.2
		c-0.9-1.6-0.5-3.7,0.9-4.8c6.1-5.9,12.1-12,18.1-18c7.4-6.1,8.4-17,2.3-24.4c-0.7-0.8-1.5-1.6-2.3-2.3c-4.8-4.8-9.5-9.5-14.3-14.4
		s-9.8-9.9-14.8-14.8c-6.3-7.2-17.3-7.9-24.5-1.6c-0.6,0.5-1.1,1-1.6,1.6c-6.2,6.1-12.1,12.3-18.3,18.2c-5.6,5.2-8.9,12.4-9.3,20.1
		c-0.5,12.5,1.7,25,6.6,36.6c9.3,24.1,22.6,46.3,39.5,65.8c22.2,26.6,49.7,48.1,80.9,63.3c13.9,7.3,29.1,11.7,44.8,13
		c10.6,1.2,21.1-2.8,28.2-10.7c5.2-5.8,11.1-11.2,16.7-16.8c7.3-6.2,8.2-17.3,2-24.6c-0.6-0.7-1.3-1.4-2-2
		C102.4,184.3,92.6,174.5,82.8,164.8z"/>
	<path id="Path_257" class="st0" d="M73,123.9l18.9-3.2C85.6,84.3,56.6,56.1,20,50.9l-2.5,19c28.3,4,50.8,25.8,55.6,53.9L73,123.9z"
		/>
	<path id="Path_258" class="st0" d="M102.5,41.6C81,19.9,52.9,5.8,22.5,1.7l-2.5,19C72.4,28.1,114,68.4,123,120.6l18.9-3.2
		C137,88.6,123.2,62.1,102.5,41.6z"/>
</g>
</svg>
