<?xml version="1.0" encoding="utf-8"?>
<!-- Generator: Adobe Illustrator 23.0.6, SVG Export Plug-In . SVG Version: 6.00 Build 0)  -->
<svg version="1.1" id="Layer_1" xmlns="http://www.w3.org/2000/svg" xmlns:xlink="http://www.w3.org/1999/xlink" x="0px" y="0px"
	 viewBox="0 0 250 250" style="enable-background:new 0 0 250 250;" xml:space="preserve">
<style type="text/css">
	.st0{fill:#D5D5D5;}
	.st1{fill:#FFFFFF;}
</style>
<rect class="st0" width="250" height="250"/>
<g id="Group_398" transform="translate(-369.018 976.445)">
	<g id="Path_236">
		<path class="st1" d="M569.3-757.2H418.8c-1.7,0-3.1-1.4-3.1-3.1v-127.5c0-1,0.5-1.9,1.3-2.5l75.3-54.8c1.1-0.8,2.6-0.8,3.6,0
			l75.2,54.8c0.8,0.6,1.3,1.5,1.3,2.5v127.5C572.4-758.6,571-757.2,569.3-757.2z M421.9-763.4h144.3v-122.8L494-938.8l-72.2,52.5
			V-763.4z"/>
	</g>
	<g id="Path_237">
		<path class="st1" d="M569.3-757.2c-1.7,0-3.1-1.4-3.1-3.1v-125.9L494-938.8l-94.5,68.8c-1.4,1-3.3,0.7-4.3-0.7
			c-1-1.4-0.7-3.3,0.7-4.3l96.3-70.1c1.1-0.8,2.6-0.8,3.6,0l70.3,51.2v-21.4c0-1.7,1.4-3.1,3.1-3.1c1.7,0,3.1,1.4,3.1,3.1v25.9
			l19.8,14.4c1.4,1,1.7,2.9,0.7,4.3c-1,1.4-2.9,1.7-4.3,0.7l-16.2-11.8v121.4C572.4-758.6,571-757.2,569.3-757.2z"/>
	</g>
</g>
</svg>
