<?xml version="1.0" encoding="utf-8"?>
<!-- Generator: Adobe Illustrator 23.0.6, SVG Export Plug-In . SVG Version: 6.00 Build 0)  -->
<svg version="1.1" id="Layer_1" xmlns="http://www.w3.org/2000/svg" xmlns:xlink="http://www.w3.org/1999/xlink" x="0px" y="0px"
	 viewBox="0 0 250 250" style="enable-background:new 0 0 250 250;" xml:space="preserve">
<style type="text/css">
	.st0{fill:#979898;}
</style>
<path id="Path_245" class="st0" d="M125.1,3.5C57.9,3.5,3.5,58,3.5,125.1c0,46.6,26.7,89.1,68.7,109.4l4.6-119.4
	c0,0-36.6-23.8-25.3-47.1C62.1,46,71.8,35.5,73.1,42.9c1.2,7-6.4,28.1-7.6,35.2h0l-0.1,1c0,0.1,0,0.1,0,0.2l0,0
	c0.1,0.1,0.9,0.4,2,0.8c0.6,0.2,1.3,0.5,2.1,0.8c0.2,0.1,0.4,0.2,0.6,0.4l31.4,21.9v39l16.7-3.7c7.6-1.7,13.4-8,14.4-15.7l2.3-17.3
	l1.3-1c60.3,6.7,55.1,12.9,56.8,25.3c0.9,7.1,10.2,10.4,18.4,12c-6.4,6.8-16.6,13.8-29.4,9.2c0,0,5.8,15.5,32.5-8.7
	c3.3,0.5,6.6,0.8,9.9,0.9c0,0-27.1,32.4-40.1,29.8S154,149.8,154,149.8s-49.4,13.2-58,11.8c-7.3-1.2-12.8-20.2-9-39
	c-3.7,14.4-8.2,39.7,5,45.4c6.8,2.9,38.7-6.8,38.7-6.8c-2,28.4-2.1,56.9-0.2,85.3c67.1-3,119-59.7,116-126.8
	C243.5,54.8,190,3.6,125.1,3.5z M124.5,104.5l-2.3,16.8c-0.5,3.4-3,6.2-6.4,6.9l-4,0.9v-23.6L124.5,104.5z M139.9,90.6
	c-2.5-0.2-5-0.2-7.5,0c-2,0.2-3.7,1.4-4.6,3.2L125,94l-16.6,1.1c-4.9-3.4-9.5-6.7-14.9-10.3l0,0c-0.1-0.3-0.2-0.7-0.3-1
	c-4.4-9.1-6.1-14.9-1.8-20c9.7-11.7,35.5-13.9,30.3-9.1C113.4,62.1,95,72.9,109,87.5c1.1-1.1,2.7-2.5,4.7-4.1
	c13.4-10.9,23.2-2.3,23.2-2.3c-12.8-3-18.5,4.6-18.5,4.6c16.5-9.3,24.5,3.7,24.5,3.7c-8.4-8.8-18.5-0.9-18.5-0.9
	C135.1,85.8,139.9,90.6,139.9,90.6L139.9,90.6z"/>
</svg>
