<?xml version="1.0" encoding="utf-8"?>
<!-- Generator: Adobe Illustrator 23.0.6, SVG Export Plug-In . SVG Version: 6.00 Build 0)  -->
<svg version="1.1" id="Layer_1" xmlns="http://www.w3.org/2000/svg" xmlns:xlink="http://www.w3.org/1999/xlink" x="0px" y="0px"
	 viewBox="0 0 250 250" style="enable-background:new 0 0 250 250;" xml:space="preserve">
<style type="text/css">
	.st0{fill:#FF4713;}
	.st1{fill:#FF4713;stroke:#FF4713;stroke-width:2.1402;}
</style>
<g id="Group_411" transform="translate(45.899 262.676)">
	<path id="Path_232" class="st0" d="M-27.6-135.2h-6.6v-87.3c0-2.6-1.8-4.8-4.4-5.3c-2.8-0.4-5.4,1.5-5.9,4.3c0,0.3-0.1,0.6-0.1,0.8
		V-53c0,2.6,1.8,4.8,4.4,5.3c2.8,0.4,5.4-1.5,5.9-4.3c0-0.3,0.1-0.6,0.1-0.8v-30.9h226.6v30.8c0,2.6,1.8,4.8,4.4,5.3
		c2.8,0.4,5.4-1.5,5.9-4.3c0-0.3,0.1-0.6,0.1-0.8v-72c0.1-5-2.6-9.5-7.5-10.3c-0.9-0.1-1.8-0.1-2.7,0v-20.6
		c0-13.4-8.9-24.2-22.4-25.8c-1.1-0.1-121.8,0-121.8,0c-14.3,0.2-24.8,9.1-25.8,22.4c-0.1,1.1-0.1,2.3,0,3.4v20.4L-27.6-135.2z
		 M32.8-155.7c-0.1-8.2,4.7-15.4,12.4-15.4c14.8,0,121.5,0,121.5,0c7.5-0.1,15.4,5.1,15.4,12.4c0,5.5,0,23.6,0,23.6H32.8V-155.7z
		 M-34.2-93.9v-30.9h226.6v30.9H-34.2z"/>
	<path id="Path_233" class="st1" d="M-5.6-192.5c-15.8,0-28.6,12.8-28.6,28.6s12.8,28.6,28.6,28.6S23-148.1,23-163.9l0,0
		C23-179.7,10.2-192.5-5.6-192.5z M-5.6-144.4c-10.7,0-19.4-8.7-19.4-19.4s8.7-19.4,19.4-19.4s19.4,8.7,19.4,19.4
		C13.8-153.1,5.1-144.4-5.6-144.4L-5.6-144.4z"/>
</g>
</svg>
