<?xml version="1.0" encoding="utf-8"?>
<!-- Generator: Adobe Illustrator 23.0.6, SVG Export Plug-In . SVG Version: 6.00 Build 0)  -->
<svg version="1.1" id="Layer_1" xmlns="http://www.w3.org/2000/svg" xmlns:xlink="http://www.w3.org/1999/xlink" x="0px" y="0px"
	 viewBox="0 0 250 250" style="enable-background:new 0 0 250 250;" xml:space="preserve">
<style type="text/css">
	.st0{fill:#FFFFFF;}
</style>
<g id="Group_276" transform="translate(-670.93 -284)">
	<path id="Path_211" class="st0" d="M883.7,451.8L883.7,451.8h-0.6c-0.6,0-1.2-0.1-1.8-0.2l-0.6-0.1c-0.4-0.1-0.7-0.2-1.1-0.3
		c-0.8-0.2-1.7-0.6-2.4-1c-0.8-0.4-1.4-1-2.1-1.6c-0.1-0.1-0.2-0.3-0.4-0.4c-0.5-0.6-1-1.2-1.4-1.8c-0.2-0.3-0.4-0.7-0.6-1.1
		c-0.2-0.4-0.4-0.8-0.6-1.2c-0.1-0.2-0.2-0.4-0.3-0.6c-0.5-1.1-0.8-2.3-1.2-3.5c-2-11.1-2.8-22.3-2.4-33.5c0-0.9,0-1.8,0-2.7v-0.4
		c0.3-14.5-0.8-28.9-3.4-43.1v-0.1c-1.1-5.6-2.9-11-5.1-16.2v-0.1c-0.1-0.2-0.2-0.5-0.3-0.7c-0.1-0.3-0.3-0.6-0.4-0.9l-0.1-0.2
		c-0.2-0.3-0.3-0.7-0.5-1c-0.1-0.3-0.3-0.7-0.5-1c-0.1-0.3-0.3-0.5-0.4-0.8c-0.2-0.4-0.4-0.8-0.6-1.1c-0.1-0.2-0.3-0.5-0.4-0.7
		c-0.2-0.4-0.5-0.8-0.7-1.2c-0.1-0.2-0.3-0.5-0.4-0.7c-0.2-0.4-0.5-0.8-0.7-1.1c-0.1-0.2-0.3-0.4-0.5-0.7c-0.2-0.4-0.5-0.7-0.8-1.1
		c-0.2-0.2-0.3-0.5-0.5-0.7c-0.3-0.3-0.5-0.7-0.8-1c-0.2-0.2-0.4-0.5-0.6-0.7c-0.2-0.3-0.5-0.6-0.8-0.9c-0.3-0.3-0.4-0.5-0.6-0.7
		c-0.2-0.3-0.5-0.6-0.7-0.8c-0.2-0.3-0.5-0.5-0.7-0.7c-0.2-0.2-0.5-0.5-0.7-0.7c-0.3-0.2-0.5-0.5-0.8-0.7l-0.7-0.7
		c-0.3-0.3-0.5-0.5-0.8-0.7l-0.7-0.6c-0.3-0.2-0.6-0.5-0.9-0.7l-0.7-0.6c-0.3-0.2-0.6-0.5-0.9-0.7l-0.7-0.5
		c-0.3-0.2-0.6-0.4-0.9-0.7l-0.8-0.5c-0.3-0.2-0.6-0.4-0.9-0.6l-0.8-0.5l-0.5-0.3l-0.3-0.2l-0.5-0.3c-0.3-0.2-0.5-0.3-0.8-0.5
		c-0.3-0.2-0.7-0.4-1-0.6c-0.5-0.2-0.9-0.5-1.4-0.7c-0.3-0.2-0.7-0.3-1.1-0.5c-0.5-0.2-0.9-0.4-1.4-0.6c-0.4-0.2-0.7-0.3-1.1-0.5
		c-0.5-0.2-0.9-0.4-1.4-0.6c-0.4-0.2-0.8-0.3-1.2-0.5c-0.4-0.1-0.9-0.3-1.3-0.5c-0.4-0.1-0.9-0.3-1.4-0.5c-0.4-0.1-0.8-0.2-1.2-0.4
		c-0.5-0.2-1.1-0.3-1.6-0.5l-0.8-0.2c-1.6-0.4-3.3-0.8-5-1.2c-0.8-10.9-9.9-19.3-20.9-19.3l0,0c-10.9,0-19.9,8.4-20.8,19.2
		c-1.7,0.3-3.3,0.7-5,1.2l-0.8,0.2c-0.5,0.2-1.1,0.3-1.6,0.5c-0.4,0.1-0.8,0.2-1.2,0.4c-0.5,0.1-0.9,0.3-1.4,0.5
		c-0.5,0.2-0.9,0.3-1.3,0.5c-0.4,0.2-0.8,0.3-1.2,0.5c-0.5,0.2-0.9,0.4-1.4,0.6c-0.4,0.2-0.7,0.3-1.1,0.5c-0.5,0.2-0.9,0.4-1.4,0.6
		c-0.4,0.2-0.7,0.3-1.1,0.5c-0.5,0.2-0.9,0.5-1.4,0.7c-0.4,0.2-0.7,0.4-1,0.6c-0.3,0.2-0.6,0.3-0.8,0.5l-0.5,0.3l-0.3,0.2
		c-0.2,0.1-0.3,0.2-0.5,0.3l-0.8,0.5l-0.9,0.6l-0.8,0.5c-0.3,0.2-0.6,0.4-0.9,0.7l-0.7,0.5c-0.3,0.2-0.6,0.5-0.9,0.7l-0.7,0.6
		c-0.3,0.2-0.6,0.5-0.9,0.7c-0.2,0.2-0.5,0.4-0.7,0.6c-0.2,0.2-0.6,0.5-0.8,0.7c-0.3,0.3-0.5,0.5-0.7,0.7s-0.5,0.5-0.8,0.7
		c-0.3,0.2-0.5,0.5-0.7,0.7c-0.2,0.2-0.5,0.5-0.7,0.7c-0.2,0.2-0.5,0.6-0.7,0.8c-0.2,0.3-0.4,0.5-0.6,0.7c-0.2,0.3-0.5,0.6-0.8,0.9
		c-0.2,0.2-0.4,0.5-0.6,0.7c-0.3,0.3-0.5,0.7-0.8,1c-0.2,0.2-0.3,0.5-0.5,0.7c-0.3,0.4-0.5,0.7-0.8,1.1c-0.1,0.2-0.3,0.4-0.5,0.7
		c-0.2,0.4-0.5,0.8-0.7,1.1c-0.1,0.2-0.3,0.5-0.4,0.7c-0.2,0.4-0.5,0.8-0.7,1.2c-0.1,0.2-0.3,0.5-0.4,0.7c-0.2,0.4-0.4,0.8-0.6,1.1
		c-0.1,0.3-0.3,0.5-0.4,0.8c-0.2,0.3-0.3,0.7-0.5,1s-0.3,0.6-0.5,1l-0.1,0.2c-0.1,0.3-0.3,0.6-0.4,0.9c-0.1,0.2-0.2,0.5-0.3,0.7v0.1
		c-2.2,5.2-3.9,10.7-5.1,16.2v0.1c-2.6,14.2-3.7,28.7-3.4,43.1c0,0.1,0,0.2,0,0.4c0,0.9,0,1.8,0,2.7c0,0.2,0,0.4,0,0.6
		c0.4,11-0.4,22.1-2.4,32.9c-0.3,1.2-0.7,2.4-1.2,3.5c-0.1,0.2-0.2,0.4-0.3,0.6c-0.2,0.4-0.4,0.8-0.6,1.2c-0.2,0.4-0.4,0.7-0.6,1.1
		c-0.4,0.7-0.8,1.3-1.3,1.8c-0.1,0.1-0.2,0.3-0.4,0.4c-0.6,0.6-1.3,1.2-2.1,1.6c-0.8,0.4-1.6,0.8-2.4,1c-0.3,0.1-0.7,0.2-1.1,0.3
		l-0.6,0.1c-0.6,0.1-1.2,0.1-1.8,0.2h-0.6l0,0c-11.3,0-20.5,9.2-20.5,20.5c0,11.3,9.2,20.5,20.5,20.5h50.5c1.8,19.3,18,34,37.4,34
		l0,0c15.2,0,29-9.2,34.7-23.3c0.3-0.7,0.6-1.4,0.8-2.1c0.4-1.1,0.7-2.2,1-3.3c0.3-1.1,0.5-2.3,0.7-3.5c0.1-0.6,0.2-1.2,0.2-1.8
		h50.5c11.3,0,20.5-9.2,20.5-20.5C904.3,460.9,895.1,451.7,883.7,451.8L883.7,451.8L883.7,451.8z M728,440
		c1.8-11.1,2.6-22.3,2.2-33.5c0-0.9,0-1.7,0-2.6c0-0.1,0-0.3,0-0.4c0-1.9,0-3.8,0.1-5.7v-0.1c0-10,0.7-20.1,2.1-30
		c0-0.1,0-0.1,0-0.2c0.1-0.9,0.3-1.8,0.5-2.7c0-0.1,0.1-0.3,0.1-0.4c0.1-0.7,0.3-1.5,0.5-2.2c0-0.2,0.1-0.4,0.1-0.6
		c0.2-0.8,0.4-1.6,0.6-2.4c1.1-4.6,2.6-9.1,4.6-13.4c0.1-0.2,0.2-0.4,0.3-0.6c6-13,17.6-22.7,31.5-26.3c0.5-0.1,1-0.3,1.5-0.4l0.1,0
		c3.2-0.8,6.5-1.5,9.8-1.9h0.1c0.8-0.1,1.7-0.2,2.5-0.3h0.2c0.8-0.1,1.6-0.2,2.4-0.2l0.4,0c0.8-0.1,1.5-0.1,2.3-0.1l0.5,0
		c0.7,0,1.5-0.1,2.2-0.1h0.6c0.9,0,1.9,0,2.8,0h0c1,0,1.9,0,2.8,0h0.6c0.7,0,1.5,0,2.2,0.1l0.5,0c0.8,0,1.5,0.1,2.3,0.1l0.4,0
		c0.8,0.1,1.6,0.1,2.4,0.2h0.2c0.8,0.1,1.7,0.2,2.5,0.3h0.1c3.3,0.4,6.6,1.1,9.8,1.9l0.1,0c0.5,0.1,1,0.3,1.5,0.4
		c13.9,3.6,25.5,13.3,31.5,26.3c0.1,0.2,0.2,0.4,0.3,0.6c1.9,4.3,3.5,8.8,4.6,13.4c0.2,0.8,0.4,1.6,0.6,2.4c0,0.2,0.1,0.4,0.1,0.6
		c0.2,0.7,0.3,1.5,0.5,2.2l0.1,0.5c0.2,0.9,0.3,1.8,0.5,2.7l0,0.2c1.4,9.9,2.1,20,2.1,30v0.1c0,1.9,0,3.8,0.1,5.7c0,0.2,0,0.3,0,0.5
		c0,0.9,0,1.7,0,2.6c-0.4,11.2,0.4,22.4,2.2,33.5c0.1,0.6,0.3,1.2,0.4,1.8c0.9,3.6,2.4,7,4.6,10H722.9c2.2-3,3.7-6.4,4.6-10
		C727.7,441.2,727.8,440.6,728,440L728,440z M809.4,309.4c-4.4-0.5-8.8-0.8-13.2-0.8h-0.7c-4.4,0-8.9,0.3-13.2,0.8
		c1.5-7.5,8.8-12.3,16.3-10.8C804,299.6,808.3,303.9,809.4,309.4L809.4,309.4z M795.8,519.8c-15.5,0-28.5-11.6-30.3-27h60.6
		C824.4,508.2,811.3,519.8,795.8,519.8L795.8,519.8z M861.5,485.8H708c-7.5,0-13.5-6.1-13.5-13.5s6.1-13.5,13.5-13.5h175.7
		c7.5,0,13.5,6.1,13.5,13.5s-6.1,13.5-13.5,13.5H861.5z"/>
</g>
</svg>
