<?xml version="1.0" encoding="utf-8"?>
<!-- Generator: Adobe Illustrator 23.0.6, SVG Export Plug-In . SVG Version: 6.00 Build 0)  -->
<svg version="1.1" id="Capa_1" xmlns="http://www.w3.org/2000/svg" xmlns:xlink="http://www.w3.org/1999/xlink" x="0px" y="0px"
	 viewBox="0 0 250 250" style="enable-background:new 0 0 250 250;" xml:space="preserve">
<style type="text/css">
	.st0{fill:none;}
	.st1{fill:#313E48;}
	.st2{fill:#FFFFFF;}
</style>
<g id="Group_412" transform="translate(0)">
	<g id="Group_413" transform="translate(-652.181 -0.589)">
		<path id="Path_260" class="st0" d="M777.2,240.7c4.6,0,8.3-3.7,8.3-8.3s-3.7-8.3-8.3-8.3s-8.3,3.7-8.3,8.3
			S772.6,240.7,777.2,240.7L777.2,240.7z"/>
		<path id="Path_261" class="st0" d="M794.8,14.2h-35.2c-1.1,0-2,0.9-2,2c0,1.1,0.9,2,2,2h35.2c1.1,0,2-0.9,2-2
			C796.8,15.1,795.9,14.2,794.8,14.2z"/>
		<path id="Path_262" class="st1" d="M705.5,232.4c0,9.2,7.5,16.6,16.7,16.7h110.1c9.2,0,16.6-7.5,16.7-16.7v-14.2H705.5
			L705.5,232.4z M777.2,224.1c4.6,0,8.3,3.7,8.3,8.3s-3.7,8.3-8.3,8.3s-8.3-3.7-8.3-8.3C768.8,227.8,772.6,224.1,777.2,224.1
			L777.2,224.1z"/>
		<path id="Path_263" class="st1" d="M848.9,18.8c0-9.2-7.5-16.7-16.7-16.7H722.1c-9.2,0-16.7,7.5-16.7,16.7v9.8h143.4L848.9,18.8z
			 M794.8,18.2h-35.2c-1.1,0-2-0.9-2-2c0-1.1,0.9-2,2-2h35.2c1.1,0,2,0.9,2,2C796.8,17.3,795.9,18.2,794.8,18.2L794.8,18.2z"/>
		<rect id="Rectangle_295" x="705.5" y="30.8" class="st1" width="143.4" height="185.2"/>
		<rect id="Rectangle_296" x="705.5" y="28.6" class="st2" width="143.4" height="2.2"/>
		<rect id="Rectangle_297" x="705.5" y="216" class="st2" width="143.4" height="2.2"/>
	</g>
</g>
</svg>
