<?xml version="1.0" encoding="utf-8"?>
<!-- Generator: Adobe Illustrator 23.0.6, SVG Export Plug-In . SVG Version: 6.00 Build 0)  -->
<svg version="1.1" id="Layer_1" xmlns="http://www.w3.org/2000/svg" xmlns:xlink="http://www.w3.org/1999/xlink" x="0px" y="0px"
	 viewBox="0 0 250 250" style="enable-background:new 0 0 250 250;" xml:space="preserve">
<style type="text/css">
	.st0{fill:#313E48;}
</style>
<g id="Path_228">
	<path class="st0" d="M46.5,46.5v156.9h36.7V99.8c-0.5,0-1.1,0.1-1.6,0.1c-0.7,0-1.4,0-2-0.1c-9.1-1.1-16-8.8-16.1-18
		c0-10,8.1-18.1,18.1-18.1c9.3,0,17,7,18,16.3c0.1,0.6,0.1,1.2,0.1,1.8s0,1.2-0.1,1.8h103.9V46.5H46.5z M180.8,80V61.9h-3.6V80h-7.9
		v-9.1h-3.6V80h-7.9v-9.1h-3.6V80h-7.9V61.9h-3.6V80h-7.9v-9.1H131V80h-7.9v-9.1h-3.6V80h-16.3c-1-11.3-10.4-19.9-21.7-19.9
		c-12,0-21.7,9.7-21.7,21.7c0,11.2,8.5,20.6,19.7,21.6v16.4H61.4v3.6h18.1v7.9h-9.1v3.6h9.1v7.9h-9.1v3.6h9.1v7.9H61.4v3.6h18.1v7.9
		h-9.1v3.7h9.1v7.9h-9.1v3.6h9.1v18.7H50.1V50h149.9v30L180.8,80z"/>
	<path class="st0" d="M84.1,204.4H45.6V45.6h158.8v39H98.5l0.2-1.1c0.1-0.5,0.1-1.1,0.1-1.7c0-0.6,0-1.2-0.1-1.7
		c-0.9-8.8-8.2-15.4-17.1-15.4c-9.4,0-17.1,7.7-17.1,17.1c0,8.7,6.6,16,15.2,17c0.6,0.1,1.3,0.1,1.9,0.1c0.5,0,0.9,0,1.5-0.1l1-0.1
		V204.4z M47.5,202.5h34.8V100.9c-0.2,0-0.5,0-0.7,0c-0.7,0-1.4,0-2.1-0.1c-9.6-1.1-16.9-9.2-16.9-18.9c0-10.5,8.6-19,19-19
		c9.8,0,17.9,7.4,18.9,17.1c0.1,0.6,0.1,1.3,0.1,1.9c0,0.3,0,0.6,0,0.9h101.9V47.5H47.5V202.5z M80.5,200.8H49.1V49.1h151.8V81
		l-21,0V62.9h-1.8V81h-9.8v-9.1h-1.8V81h-9.8v-9.1H155V81h-9.8V62.9h-1.8V81h-9.8v-9.1H132V81h-9.8v-9.1h-1.8V81h-18.1l-0.1-0.9
		c-0.9-10.8-9.8-19-20.7-19c-11.4,0-20.8,9.3-20.8,20.8c0,10.8,8.1,19.7,18.8,20.7l0.9,0.1v18.2H62.4v1.8h18.1v9.8h-9.1v1.8h9.1v9.8
		h-9.1v1.8h9.1v9.8H62.4v1.8h18.1v9.8h-9.1v1.8h9.1v9.7h-9.1v1.8h9.1V200.8z M51,198.9h27.6v-16.8h-9.1v-5.5h9.1v-6h-9.1V165h9.1v-6
		H60.5v-5.5h18.1v-6h-9.1V142h9.1v-6h-9.1v-5.5h9.1v-6H60.5v-5.5h18.1v-14.6c-11.3-1.5-19.7-11-19.7-22.5
		c0-12.5,10.2-22.7,22.7-22.7c11.6,0,21.1,8.5,22.5,19.9h14.5v-9.1h5.5v9.1h6v-9.1h5.5v9.1h6V61h5.5v18.1h6v-9.1h5.5v9.1h6v-9.1h5.5
		v9.1h6V61h5.5v18.1l17.2,0V51H51V198.9z"/>
</g>
</svg>
